<svg width="552" height="750" xmlns="http://www.w3.org/2000/svg" xmlns:xlink="http://www.w3.org/1999/xlink">
 <defs>
  <path id="a" d="m3.572,20.595c-4.858,13.383 0.535,27.963 1.975,31.11c-7.354,11.475 -6.092,25.84 -3.046,37.662s10.137,23.746 19.506,30.262c14.043,9.767 35.542,8.926 35.542,8.926l0,2.123s-3.848,1.4 -9.487,7.234c-4.286,4.434 -7.24,4.563 -10.116,3.321c-2.414,-1.042 -2.037,-4.44 -2.43,-10.276c-0.286,-4.234 -5.355,-2.402 -7.092,1.95c-3.35,8.388 -0.162,16.054 6.47,19.015c10.746,4.797 22.655,-7.428 22.655,-7.428s1.412,8.811 -1.1,11.553c-2.487,2.715 -6.065,2.19 -9.592,-1.136c-1.966,-1.854 -4.783,-0.292 -4.407,2.377c0.715,5.091 4.445,9.938 10.53,9.938c7.479,0 15.306,-4.102 14.937,-14.676c-0.607,-17.366 1.578,-18.477 1.578,-18.477s0.833,6.869 4.005,19.226c2.196,8.55 -4.629,12.59 -9.599,14.315c-4.2,1.457 -6.557,5.28 -1.307,6.47c8.236,1.869 15.048,-0.43 19.871,-8.653c4.093,-6.975 1.9,-11.284 -0.587,-23.327c-1.035,-5.015 -1.14,-10.242 -1.14,-10.242l1.727,-0.14s-0.282,3.285 2.595,14.221c2.33,8.858 3.573,16.398 -0.71,24.876c-1.494,2.958 -9.24,8.487 -4.786,9.62c4.693,1.194 11.293,-0.345 15.305,-7.142c5.263,-8.916 3.516,-16.295 0.683,-28.803c-1.85,-8.17 -1.807,-12.665 -1.807,-12.665s4.39,1.962 4.899,7.217c0.843,8.687 2.914,15.865 8.927,19.105c8.652,4.662 14.926,1.901 17.66,-2.104c1.894,-2.777 2.134,-8.775 -0.272,-10.104c-1.824,-1.008 -3.691,4.642 -6.875,5.12c-4.22,0.631 -8.746,-1.283 -8.746,-13.15c0,-11.174 -5.666,-17.056 -5.666,-17.056s30.515,-7.755 36.772,-29.505c3.474,-12.074 3.105,-26.533 -1.355,-41.528c-4.29,-14.424 -14.773,-21.8 -14.773,-21.8s0.577,-14.52 -8.636,-27.186c-12.26,-4.049 -29.032,12.058 -31.33,13.944c-24.817,-1.18 -45.636,8.827 -45.636,8.827s-23.206,-11.215 -35.142,-3.014z"/>
  <path id="c" d="m7,83.5c0,45.011 35.817,81.5 80,81.5s80,-36.489 80,-81.5s-35.817,-81.5 -80,-81.5s-80,36.489 -80,81.5z"/>
  <filter id="d" filterUnits="objectBoundingBox" height="108%" width="108.1%" y="-4%" x="-4.1%"/>
  <path id="e" d="m20.086,76.96c0,34.117 27.313,61.775 61.006,61.775s61.006,-27.658 61.006,-61.775c0,-34.118 -27.313,-61.775 -61.006,-61.775s-61.006,27.657 -61.006,61.775z"/>
  <filter id="f" filterUnits="objectBoundingBox" height="108.1%" width="108.2%" y="-4%" x="-4.1%"/>
 </defs>
 <g>
  <title>background</title>
  <rect fill="none" id="canvas_background" height="402" width="582" y="-1" x="-1"/>
 </g>
 <g>
  <title>Layer 1</title>
  <g id="svg_1" fill-rule="evenodd" fill="none">
   <g id="svg_35">
    <use id="svg_36" x="231" y="308" xlink:href="#c" fill="#00A9FF"/>
    <use id="svg_37" x="231" y="308" xlink:href="#c" filter="url(#d)" fill="#000"/>
    <path id="svg_38" d="m240,391.5c0,43.915 34.93,79.5 78,79.5s78,-35.585 78,-79.5s-34.93,-79.5 -78,-79.5s-78,35.585 -78,79.5z" stroke-width="4" stroke="#000" stroke-opacity="0.08"/>
   </g>
   <g id="svg_39" fill="#000" fill-opacity="0.121"/>
   <g id="svg_41"/>
   <g id="svg_44"/>
   <g id="svg_47">
    <g id="svg_48">
     <use id="svg_49" x="13" y="558" xlink:href="#e" fill="#28BD8B"/>
     <use id="svg_50" x="13" y="558" xlink:href="#e" filter="url(#f)" fill="#000"/>
     <path id="svg_51" d="m34.086,634.96c0,33.568 26.868,60.775 60.006,60.775c33.138,0 60.006,-27.207 60.006,-60.775s-26.868,-60.775 -60.006,-60.775c-33.138,0 -60.006,27.207 -60.006,60.775z" stroke-width="2" stroke="#000" stroke-opacity="0.08"/>
    </g>
   </g>
   <g id="svg_56">
    <circle id="svg_57" r="3.5" cy="116.5" cx="361.5" opacity="0.536" fill="#6519FF"/>
    <circle id="svg_58" r="2.5" cy="562.5" cx="188.5" opacity="0.811" fill="#00A9FF"/>
    <circle id="svg_59" r="2.5" cy="202.5" cx="550.5" opacity="0.811" fill="#28BD8B"/>
    <circle id="svg_60" r="4" cy="493" cx="413" opacity="0.398" fill="#00A9FF"/>
    <circle id="svg_61" r="3" cy="263" cx="227" opacity="0.55" fill="#6519FF"/>
    <circle id="svg_62" r="3" cy="50" cx="4" opacity="0.55" fill="#00A9FF"/>
   </g>
   <g id="svg_71">
    <g id="svg_66">
     <use id="svg_63" x="78" y="60" xlink:href="#e" fill="#0C59F2"/>
     <use id="svg_64" x="78" y="60" xlink:href="#e" filter="url(#f)" fill="#000"/>
     <path id="svg_65" d="m99.086,136.96c0,33.568 26.868,60.775 60.006,60.775c33.138,0 60.006,-27.207 60.006,-60.775s-26.868,-60.775 -60.006,-60.775c-33.138,0 -60.006,27.207 -60.006,60.775z" stroke-width="2" stroke="#000" stroke-opacity="0.08"/>
    </g>
   </g>
  </g>
 </g>
</svg>
